# xmcd
# 
# Track frame offsets:
#     150
#     17024
#     37755
#     55592
#     66963
#     79472
#     106513
#     123826
#     141086
#     154223
#     178944
# 
# Disc length: 2621
# 
# Revision: 1
# Processed by: cddbd v1.5.2PL0 Copyright (c) Steve Scherf et al.
# Submitted via: fre:ac v1.0.27
# 
DISCID=870a3b0b
DTITLE=Toshi Reagon - Have You Heard
DYEAR=2005
DGENRE=American Folk
TTITLE0=Have You Heard
TTITLE1=22 Hours
TTITLE2=Didn't I Tell You
TTITLE3=Trying to Bring Love Home
TTITLE4=Ooh Wee
TTITLE5=Building Blues
TTITLE6=You
TTITLE7=Down to the Water
TTITLE8=Soul-N-Deep
TTITLE9=Dream
TTITLE10=Heartbreak Hotel
EXTD=
EXTT0=
EXTT1=
EXTT2=
EXTT3=
EXTT4=
EXTT5=
EXTT6=
EXTT7=
EXTT8=
EXTT9=
EXTT10=
PLAYORDER=
